<svg xmlns="http://www.w3.org/2000/svg" xmlns:xlink="http://www.w3.org/1999/xlink" width="500" zoomAndPan="magnify" viewBox="0 0 375 97.5" height="130" preserveAspectRatio="xMidYMid meet" version="1.0"><defs><g/><clipPath id="5269d07fe0"><path d="M 8 0 L 364 0 L 364 97.003906 L 8 97.003906 Z M 8 0 " clip-rule="nonzero"/></clipPath><clipPath id="7e7c187553"><rect x="0" width="356" y="0" height="98"/></clipPath></defs><g clip-path="url(#5269d07fe0)"><g transform="matrix(1, 0, 0, 1, 8, 0.000000000000016238)"><g clip-path="url(#7e7c187553)"><g fill="#f1efe7" fill-opacity="1"><g transform="translate(0.659574, 92.741685)"><g><path d="M 11.375 -6.390625 C 5.394531 -11.710938 2.40625 -18.53125 2.40625 -26.84375 C 2.40625 -35.164062 5.515625 -42 11.734375 -47.34375 C 17.960938 -52.695312 25.65625 -55.375 34.8125 -55.375 C 43.832031 -55.375 51.4375 -52.679688 57.625 -47.296875 C 63.8125 -41.910156 66.90625 -35.09375 66.90625 -26.84375 C 66.90625 -18.59375 63.878906 -11.789062 57.828125 -6.4375 C 51.785156 -1.09375 44.113281 1.578125 34.8125 1.578125 C 25.164062 1.578125 17.351562 -1.078125 11.375 -6.390625 Z M 25.734375 -35.96875 C 23.328125 -33.59375 22.125 -30.550781 22.125 -26.84375 C 22.125 -23.144531 23.273438 -20.125 25.578125 -17.78125 C 27.890625 -15.4375 30.9375 -14.265625 34.71875 -14.265625 C 38.351562 -14.265625 41.335938 -15.453125 43.671875 -17.828125 C 46.015625 -20.203125 47.1875 -23.207031 47.1875 -26.84375 C 47.1875 -30.550781 45.976562 -33.59375 43.5625 -35.96875 C 41.15625 -38.34375 38.207031 -39.53125 34.71875 -39.53125 C 31.144531 -39.53125 28.148438 -38.34375 25.734375 -35.96875 Z M 25.734375 -35.96875 "/></g></g></g><g fill="#f1efe7" fill-opacity="1"><g transform="translate(60.109299, 92.741685)"><g><path d="M 61.65625 -47.078125 C 66.695312 -41.554688 69.21875 -34.8125 69.21875 -26.84375 C 69.21875 -18.875 66.695312 -12.144531 61.65625 -6.65625 C 56.625 -1.164062 50.226562 1.578125 42.46875 1.578125 C 35.34375 1.578125 29.472656 -0.972656 24.859375 -6.078125 L 24.640625 -6.078125 L 24.640625 0 L 6.296875 0 L 6.296875 -90.1875 L 24.859375 -90.1875 L 24.859375 -48.65625 C 29.472656 -53.132812 35.34375 -55.375 42.46875 -55.375 C 50.226562 -55.375 56.625 -52.609375 61.65625 -47.078125 Z M 46.03125 -17.78125 C 48.34375 -20.125 49.5 -23.144531 49.5 -26.84375 C 49.5 -30.550781 48.289062 -33.59375 45.875 -35.96875 C 43.46875 -38.34375 40.484375 -39.53125 36.921875 -39.53125 C 33.421875 -39.53125 30.460938 -38.34375 28.046875 -35.96875 C 25.640625 -33.59375 24.4375 -30.550781 24.4375 -26.84375 C 24.4375 -23.207031 25.609375 -20.203125 27.953125 -17.828125 C 30.296875 -15.453125 33.285156 -14.265625 36.921875 -14.265625 C 40.691406 -14.265625 43.726562 -15.4375 46.03125 -17.78125 Z M 46.03125 -17.78125 "/></g></g></g><g fill="#f1efe7" fill-opacity="1"><g transform="translate(121.865828, 92.741685)"><g><path d="M 60.71875 -24.328125 L 21.703125 -24.328125 C 21.703125 -20.554688 22.925781 -17.757812 25.375 -15.9375 C 27.820312 -14.125 30.476562 -13.21875 33.34375 -13.21875 C 36.351562 -13.21875 38.734375 -13.617188 40.484375 -14.421875 C 42.234375 -15.222656 44.222656 -16.8125 46.453125 -19.1875 L 59.890625 -12.484375 C 54.296875 -3.109375 44.992188 1.578125 31.984375 1.578125 C 23.878906 1.578125 16.921875 -1.203125 11.109375 -6.765625 C 5.304688 -12.328125 2.40625 -19.019531 2.40625 -26.84375 C 2.40625 -34.675781 5.304688 -41.390625 11.109375 -46.984375 C 16.921875 -52.578125 23.878906 -55.375 31.984375 -55.375 C 40.515625 -55.375 47.453125 -52.910156 52.796875 -47.984375 C 58.148438 -43.054688 60.828125 -36.007812 60.828125 -26.84375 C 60.828125 -25.582031 60.789062 -24.742188 60.71875 -24.328125 Z M 22.234375 -34.609375 L 42.6875 -34.609375 C 42.269531 -37.398438 41.164062 -39.546875 39.375 -41.046875 C 37.59375 -42.554688 35.304688 -43.3125 32.515625 -43.3125 C 29.429688 -43.3125 26.976562 -42.503906 25.15625 -40.890625 C 23.34375 -39.285156 22.367188 -37.191406 22.234375 -34.609375 Z M 22.234375 -34.609375 "/></g></g></g><g fill="#f1efe7" fill-opacity="1"><g transform="translate(175.233978, 92.741685)"><g><path d="M 6.296875 0 L 6.296875 -90.1875 L 24.859375 -90.1875 L 24.859375 0 Z M 6.296875 0 "/></g></g></g><g fill="#f1efe7" fill-opacity="1"><g transform="translate(196.516604, 92.741685)"><g><path d="M 8.078125 -83.796875 C 10.242188 -85.960938 12.828125 -87.046875 15.828125 -87.046875 C 18.835938 -87.046875 21.425781 -85.960938 23.59375 -83.796875 C 25.757812 -81.628906 26.84375 -79.039062 26.84375 -76.03125 C 26.84375 -73.03125 25.757812 -70.441406 23.59375 -68.265625 C 21.425781 -66.097656 18.835938 -65.015625 15.828125 -65.015625 C 12.828125 -65.015625 10.242188 -66.097656 8.078125 -68.265625 C 5.910156 -70.441406 4.828125 -73.03125 4.828125 -76.03125 C 4.828125 -79.039062 5.910156 -81.628906 8.078125 -83.796875 Z M 6.296875 -53.796875 L 6.296875 0 L 24.859375 0 L 24.859375 -53.796875 Z M 6.296875 -53.796875 "/></g></g></g><g fill="#f1efe7" fill-opacity="1"><g transform="translate(218.323519, 92.741685)"><g><path d="M 34.921875 -40.171875 C 31.421875 -40.171875 28.410156 -38.875 25.890625 -36.28125 C 23.378906 -33.695312 22.125 -30.585938 22.125 -26.953125 C 22.125 -23.242188 23.378906 -20.097656 25.890625 -17.515625 C 28.410156 -14.929688 31.421875 -13.640625 34.921875 -13.640625 C 36.597656 -13.640625 38.1875 -13.847656 39.6875 -14.265625 C 41.195312 -14.679688 42.300781 -15.097656 43 -15.515625 L 43.9375 -16.15625 L 50.234375 -3.25 C 49.742188 -2.90625 49.0625 -2.46875 48.1875 -1.9375 C 47.3125 -1.414062 45.316406 -0.703125 42.203125 0.203125 C 39.097656 1.117188 35.765625 1.578125 32.203125 1.578125 C 24.296875 1.578125 17.351562 -1.203125 11.375 -6.765625 C 5.394531 -12.328125 2.40625 -18.988281 2.40625 -26.75 C 2.40625 -34.570312 5.394531 -41.296875 11.375 -46.921875 C 17.351562 -52.554688 24.296875 -55.375 32.203125 -55.375 C 35.765625 -55.375 39.046875 -54.953125 42.046875 -54.109375 C 45.054688 -53.273438 47.191406 -52.4375 48.453125 -51.59375 L 50.234375 -50.34375 L 43.9375 -37.65625 C 41.632812 -39.332031 38.628906 -40.171875 34.921875 -40.171875 Z M 34.921875 -40.171875 "/></g></g></g><g fill="#f1efe7" fill-opacity="1"><g transform="translate(259.947953, 92.741685)"><g><path d="M 9.953125 -6.65625 C 4.921875 -12.144531 2.40625 -18.875 2.40625 -26.84375 C 2.40625 -34.8125 4.921875 -41.554688 9.953125 -47.078125 C 14.992188 -52.609375 21.394531 -55.375 29.15625 -55.375 C 36.289062 -55.375 42.164062 -53.132812 46.78125 -48.65625 L 46.78125 -53.796875 L 65.34375 -53.796875 L 65.34375 0 L 46.984375 0 L 46.984375 -6.078125 L 46.78125 -6.078125 C 42.164062 -0.972656 36.289062 1.578125 29.15625 1.578125 C 21.394531 1.578125 14.992188 -1.164062 9.953125 -6.65625 Z M 25.734375 -35.96875 C 23.328125 -33.59375 22.125 -30.550781 22.125 -26.84375 C 22.125 -23.144531 23.273438 -20.125 25.578125 -17.78125 C 27.890625 -15.4375 30.9375 -14.265625 34.71875 -14.265625 C 38.351562 -14.265625 41.335938 -15.453125 43.671875 -17.828125 C 46.015625 -20.203125 47.1875 -23.207031 47.1875 -26.84375 C 47.1875 -30.550781 45.976562 -33.59375 43.5625 -35.96875 C 41.15625 -38.34375 38.207031 -39.53125 34.71875 -39.53125 C 31.144531 -39.53125 28.148438 -38.34375 25.734375 -35.96875 Z M 25.734375 -35.96875 "/></g></g></g><g fill="#f1efe7" fill-opacity="1"><g transform="translate(321.704482, 92.741685)"><g><path d="M 18.25 -22.4375 C 21.601562 -22.4375 24.453125 -21.265625 26.796875 -18.921875 C 29.140625 -16.585938 30.3125 -13.738281 30.3125 -10.375 C 30.3125 -7.09375 29.140625 -4.28125 26.796875 -1.9375 C 24.453125 0.40625 21.601562 1.578125 18.25 1.578125 C 14.957031 1.578125 12.140625 0.40625 9.796875 -1.9375 C 7.460938 -4.28125 6.296875 -7.09375 6.296875 -10.375 C 6.296875 -13.738281 7.460938 -16.585938 9.796875 -18.921875 C 12.140625 -21.265625 14.957031 -22.4375 18.25 -22.4375 Z M 18.25 -22.4375 "/></g></g></g></g></g></g></svg>