<svg xmlns="http://www.w3.org/2000/svg" xmlns:xlink="http://www.w3.org/1999/xlink" width="500" zoomAndPan="magnify" viewBox="0 0 375 74.999997" height="100" preserveAspectRatio="xMidYMid meet" version="1.0"><defs><g/></defs><g fill="#ffffff" fill-opacity="1"><g transform="translate(14.864805, 33.687284)"><g><path d="M 44.796875 -24.078125 L 17.25 3.46875 L 29.09375 15.3125 L 22.203125 22.203125 L 2.515625 2.515625 L 36.953125 -31.921875 Z M 44.796875 -24.078125 "/></g></g></g><g fill="#ffffff" fill-opacity="1"><g transform="translate(81.824698, 41.310078)"><g><path d="M -44.796875 24.078125 L -17.25 -3.46875 L -29.09375 -15.3125 L -22.203125 -22.203125 L -2.515625 -2.515625 L -36.953125 31.921875 Z M -44.796875 24.078125 "/></g></g></g><g fill="#ffffff" fill-opacity="1"><g transform="translate(88.806379, 57.432131)"><g><path d="M 60.96875 -41.640625 L 50.125 0 L 37.84375 0 L 31.203125 -27.40625 L 24.3125 0 L 12.046875 0 L 1.484375 -41.640625 L 12.34375 -41.640625 L 18.328125 -11.328125 L 25.734375 -41.640625 L 36.890625 -41.640625 L 44.015625 -11.328125 L 50.0625 -41.640625 Z M 60.96875 -41.640625 "/></g></g></g><g fill="#ffffff" fill-opacity="1"><g transform="translate(151.200228, 57.432131)"><g><path d="M 34.875 -17.078125 C 34.875 -16.128906 34.816406 -15.140625 34.703125 -14.109375 L 11.75 -14.109375 C 11.90625 -12.054688 12.566406 -10.484375 13.734375 -9.390625 C 14.898438 -8.304688 16.332031 -7.765625 18.03125 -7.765625 C 20.5625 -7.765625 22.320312 -8.832031 23.3125 -10.96875 L 34.109375 -10.96875 C 33.554688 -8.789062 32.554688 -6.832031 31.109375 -5.09375 C 29.660156 -3.351562 27.847656 -1.988281 25.671875 -1 C 23.503906 -0.0195312 21.078125 0.46875 18.390625 0.46875 C 15.140625 0.46875 12.25 -0.21875 9.71875 -1.59375 C 7.195312 -2.976562 5.222656 -4.957031 3.796875 -7.53125 C 2.367188 -10.101562 1.65625 -13.109375 1.65625 -16.546875 C 1.65625 -19.984375 2.359375 -22.988281 3.765625 -25.5625 C 5.171875 -28.132812 7.140625 -30.113281 9.671875 -31.5 C 12.203125 -32.882812 15.109375 -33.578125 18.390625 -33.578125 C 21.585938 -33.578125 24.429688 -32.898438 26.921875 -31.546875 C 29.421875 -30.203125 31.367188 -28.285156 32.765625 -25.796875 C 34.171875 -23.304688 34.875 -20.398438 34.875 -17.078125 Z M 24.5 -19.75 C 24.5 -21.488281 23.90625 -22.867188 22.71875 -23.890625 C 21.53125 -24.921875 20.046875 -25.4375 18.265625 -25.4375 C 16.566406 -25.4375 15.132812 -24.941406 13.96875 -23.953125 C 12.800781 -22.972656 12.078125 -21.570312 11.796875 -19.75 Z M 24.5 -19.75 "/></g></g></g><g fill="#ffffff" fill-opacity="1"><g transform="translate(187.735024, 57.432131)"><g><path d="M 13.8125 -28.40625 C 14.769531 -29.945312 16.132812 -31.191406 17.90625 -32.140625 C 19.6875 -33.097656 21.722656 -33.578125 24.015625 -33.578125 C 26.742188 -33.578125 29.210938 -32.882812 31.421875 -31.5 C 33.640625 -30.113281 35.390625 -28.132812 36.671875 -25.5625 C 37.960938 -22.988281 38.609375 -20.003906 38.609375 -16.609375 C 38.609375 -13.203125 37.960938 -10.203125 36.671875 -7.609375 C 35.390625 -5.023438 33.640625 -3.03125 31.421875 -1.625 C 29.210938 -0.226562 26.742188 0.46875 24.015625 0.46875 C 21.679688 0.46875 19.644531 0.00390625 17.90625 -0.921875 C 16.164062 -1.847656 14.800781 -3.082031 13.8125 -4.625 L 13.8125 0 L 3.671875 0 L 3.671875 -43.890625 L 13.8125 -43.890625 Z M 28.296875 -16.609375 C 28.296875 -19.140625 27.59375 -21.125 26.1875 -22.5625 C 24.78125 -24.007812 23.050781 -24.734375 21 -24.734375 C 18.976562 -24.734375 17.265625 -24 15.859375 -22.53125 C 14.460938 -21.070312 13.765625 -19.078125 13.765625 -16.546875 C 13.765625 -14.015625 14.460938 -12.015625 15.859375 -10.546875 C 17.265625 -9.085938 18.976562 -8.359375 21 -8.359375 C 23.007812 -8.359375 24.726562 -9.097656 26.15625 -10.578125 C 27.582031 -12.066406 28.296875 -14.078125 28.296875 -16.609375 Z M 28.296875 -16.609375 "/></g></g></g><g fill="#ffffff" fill-opacity="1"><g transform="translate(228.006334, 57.432131)"><g><path d="M 1.65625 -16.546875 C 1.65625 -19.984375 2.359375 -22.988281 3.765625 -25.5625 C 5.171875 -28.132812 7.128906 -30.113281 9.640625 -31.5 C 12.148438 -32.882812 15.023438 -33.578125 18.265625 -33.578125 C 22.421875 -33.578125 25.890625 -32.488281 28.671875 -30.3125 C 31.460938 -28.132812 33.289062 -25.066406 34.15625 -21.109375 L 23.375 -21.109375 C 22.457031 -23.640625 20.695312 -24.90625 18.09375 -24.90625 C 16.226562 -24.90625 14.742188 -24.179688 13.640625 -22.734375 C 12.535156 -21.296875 11.984375 -19.234375 11.984375 -16.546875 C 11.984375 -13.859375 12.535156 -11.789062 13.640625 -10.34375 C 14.742188 -8.90625 16.226562 -8.1875 18.09375 -8.1875 C 20.695312 -8.1875 22.457031 -9.453125 23.375 -11.984375 L 34.15625 -11.984375 C 33.289062 -8.109375 31.453125 -5.0625 28.640625 -2.84375 C 25.835938 -0.632812 22.378906 0.46875 18.265625 0.46875 C 15.023438 0.46875 12.148438 -0.21875 9.640625 -1.59375 C 7.128906 -2.976562 5.171875 -4.957031 3.765625 -7.53125 C 2.359375 -10.101562 1.65625 -13.109375 1.65625 -16.546875 Z M 1.65625 -16.546875 "/></g></g></g><g fill="#ffffff" fill-opacity="1"><g transform="translate(263.88873, 57.432131)"><g><path d="M 13.8125 -27.578125 C 15 -29.398438 16.484375 -30.832031 18.265625 -31.875 C 20.046875 -32.925781 22.023438 -33.453125 24.203125 -33.453125 L 24.203125 -22.71875 L 21.40625 -22.71875 C 18.875 -22.71875 16.972656 -22.171875 15.703125 -21.078125 C 14.441406 -19.992188 13.8125 -18.085938 13.8125 -15.359375 L 13.8125 0 L 3.671875 0 L 3.671875 -33.09375 L 13.8125 -33.09375 Z M 13.8125 -27.578125 "/></g></g></g><g fill="#ffffff" fill-opacity="1"><g transform="translate(289.273306, 57.432131)"><g><path d="M 1.65625 -16.609375 C 1.65625 -20.003906 2.296875 -22.988281 3.578125 -25.5625 C 4.867188 -28.132812 6.617188 -30.113281 8.828125 -31.5 C 11.046875 -32.882812 13.519531 -33.578125 16.25 -33.578125 C 18.582031 -33.578125 20.628906 -33.097656 22.390625 -32.140625 C 24.148438 -31.191406 25.503906 -29.945312 26.453125 -28.40625 L 26.453125 -33.09375 L 36.59375 -33.09375 L 36.59375 0 L 26.453125 0 L 26.453125 -4.6875 C 25.460938 -3.144531 24.085938 -1.898438 22.328125 -0.953125 C 20.566406 -0.00390625 18.519531 0.46875 16.1875 0.46875 C 13.5 0.46875 11.046875 -0.226562 8.828125 -1.625 C 6.617188 -3.03125 4.867188 -5.023438 3.578125 -7.609375 C 2.296875 -10.203125 1.65625 -13.203125 1.65625 -16.609375 Z M 26.453125 -16.546875 C 26.453125 -19.078125 25.75 -21.070312 24.34375 -22.53125 C 22.945312 -24 21.238281 -24.734375 19.21875 -24.734375 C 17.195312 -24.734375 15.484375 -24.007812 14.078125 -22.5625 C 12.679688 -21.125 11.984375 -19.140625 11.984375 -16.609375 C 11.984375 -14.078125 12.679688 -12.066406 14.078125 -10.578125 C 15.484375 -9.097656 17.195312 -8.359375 19.21875 -8.359375 C 21.238281 -8.359375 22.945312 -9.085938 24.34375 -10.546875 C 25.75 -12.015625 26.453125 -14.015625 26.453125 -16.546875 Z M 26.453125 -16.546875 "/></g></g></g><g fill="#ffffff" fill-opacity="1"><g transform="translate(329.544616, 57.432131)"><g><path d="M 20.28125 -24.671875 L 14.828125 -24.671875 L 14.828125 0 L 4.6875 0 L 4.6875 -24.671875 L 1.015625 -24.671875 L 1.015625 -33.09375 L 4.6875 -33.09375 L 4.6875 -34.046875 C 4.6875 -38.117188 5.851562 -41.210938 8.1875 -43.328125 C 10.519531 -45.441406 13.941406 -46.5 18.453125 -46.5 C 19.203125 -46.5 19.753906 -46.476562 20.109375 -46.4375 L 20.109375 -37.84375 C 18.171875 -37.957031 16.804688 -37.675781 16.015625 -37 C 15.222656 -36.332031 14.828125 -35.128906 14.828125 -33.390625 L 14.828125 -33.09375 L 20.28125 -33.09375 Z M 20.28125 -24.671875 "/></g></g></g><g fill="#ffffff" fill-opacity="1"><g transform="translate(350.896121, 57.432131)"><g><path d="M 22.125 -8.59375 L 22.125 0 L 16.96875 0 C 13.289062 0 10.421875 -0.894531 8.359375 -2.6875 C 6.304688 -4.488281 5.28125 -7.425781 5.28125 -11.5 L 5.28125 -24.671875 L 1.25 -24.671875 L 1.25 -33.09375 L 5.28125 -33.09375 L 5.28125 -41.15625 L 15.421875 -41.15625 L 15.421875 -33.09375 L 22.0625 -33.09375 L 22.0625 -24.671875 L 15.421875 -24.671875 L 15.421875 -11.390625 C 15.421875 -10.398438 15.65625 -9.6875 16.125 -9.25 C 16.601562 -8.8125 17.394531 -8.59375 18.5 -8.59375 Z M 22.125 -8.59375 "/></g></g></g></svg>